<svg width="194" height="194" viewBox="0 0 194 194" fill="none" xmlns="http://www.w3.org/2000/svg">
<g filter="url(#filter0_d_15_84)">
<rect x="23" y="9" width="148" height="148" rx="24" fill="white"/>
</g>
<g clip-path="url(#clip0_15_84)">
<path d="M79.7711 89.982C79.6674 89.6746 79.5637 89.3671 79.4759 89.0596C79.4537 89.0043 79.435 88.9475 79.42 88.8897C79.3482 88.6308 79.2764 88.3719 79.2205 88.0806C79.2008 88.0142 79.1848 87.9466 79.1726 87.8783C79.0928 87.5385 79.021 87.1906 78.9652 86.8427C78.9652 86.7942 78.9652 86.7456 78.9652 86.6971C78.9652 86.4948 78.9093 86.2925 78.8774 86.0902C78.8774 86.0255 78.8774 85.9608 78.8774 85.9041C78.8774 85.6129 78.8136 85.3135 78.7896 85.0141C78.7896 84.9008 78.7896 84.7795 78.7896 84.6581C78.7896 84.3264 78.7896 83.9866 78.7896 83.6467C78.7896 83.1532 78.7896 82.6677 78.8534 82.1823C78.8534 82.1175 78.8534 82.0447 78.8534 81.9719C79.1401 78.3914 80.4427 74.9715 82.6041 72.1251C82.3045 68.8307 81.668 65.5768 80.7048 62.4159C77.034 51.8976 69.6046 52.0918 64.5932 57.7717C58.5038 65.6129 55.3772 75.4015 55.7766 85.3735C56.176 95.3454 60.0753 104.845 66.7717 112.16C67.9049 113.098 70.9133 114.821 75.6854 111.892C81.83 108.114 82.3567 98.2268 80.5931 91.9562C80.2858 91.3129 80.0114 90.654 79.7711 89.982Z" fill="url(#paint0_linear_15_84)"/>
<path d="M114.229 77.3196C114.341 77.627 114.436 77.9345 114.532 78.25L114.58 78.4199C114.652 78.6789 114.724 78.9378 114.788 79.229L114.835 79.4313C114.915 79.7792 114.979 80.1191 115.043 80.467V80.6126C115.043 80.8149 115.107 81.0172 115.131 81.2194V81.4055C115.131 81.7049 115.195 81.9962 115.218 82.2955V82.6516C115.218 82.9833 115.218 83.3231 115.218 83.6629C115.218 84.1565 115.218 84.6419 115.155 85.1274C115.155 85.2002 115.155 85.2649 115.155 85.3378C114.837 88.9228 113.501 92.3376 111.308 95.1684C111.615 98.4616 112.252 101.715 113.207 104.878C116.878 115.396 124.308 115.202 129.319 109.522C135.42 101.691 138.562 91.9083 138.179 81.9365C137.795 71.9647 133.912 62.4596 127.228 55.134C126.103 54.1954 123.087 52.472 118.323 55.401C112.17 59.1795 111.643 69.0667 113.407 75.3373C113.718 75.9816 113.992 76.6435 114.229 77.3196Z" fill="url(#paint1_linear_15_84)"/>
<g style="mix-blend-mode:screen">
<path d="M138.256 83.6548C138.277 73.0746 134.335 62.881 127.228 55.134C126.103 54.1954 123.086 52.472 118.322 55.401C115.995 56.942 114.294 59.2838 113.534 61.9952C114.361 59.5991 115.954 57.5516 118.059 56.1777C122.847 53.2569 125.84 54.9722 126.965 55.9188C132.065 61.4852 135.575 68.353 137.122 75.7869C138.668 83.2208 138.191 90.9412 135.743 98.1216C137.416 93.4876 138.267 88.5897 138.256 83.6548ZM111.444 95.492C112.523 94.0106 113.378 92.3744 113.981 90.6374C113.336 92.2647 112.466 93.7904 111.396 95.1684L111.444 95.492Z" fill="url(#paint2_linear_15_84)"/>
</g>
<path d="M130.357 108.381C125.377 115.161 117.206 116.084 113.295 104.91C112.332 101.727 111.695 98.4516 111.396 95.136C110.598 87.8541 110.215 78.7274 109.88 70.4503C109.545 62.1732 109.218 54.6728 108.388 50.9671C106.52 42.6657 99.035 41.8243 97.3273 41.7434H96.9842C90.4849 41.7397 84.0769 43.2939 78.2828 46.279C72.4886 49.2642 67.4726 53.5958 63.6437 58.9206C68.6153 52.1403 76.7948 51.2179 80.697 62.3916C81.6636 65.5738 82.3001 68.8495 82.5962 72.1656C83.4421 79.4475 83.7852 88.5742 84.1124 96.8513C84.4396 105.128 84.7827 112.629 85.6127 116.335C87.472 124.636 94.9652 125.477 96.665 125.558H97.0161C103.515 125.56 109.922 124.005 115.716 121.02C121.51 118.035 126.526 113.704 130.357 108.381Z" fill="url(#paint3_linear_15_84)"/>
<g style="mix-blend-mode:screen" opacity="0.6">
<path d="M129.287 109.684C128.96 110.121 128.641 110.557 128.298 110.97C129.016 110.161 129.71 109.279 130.357 108.381C130.013 108.842 129.654 109.279 129.287 109.684ZM129.287 109.684C124.276 115.218 116.95 115.291 113.327 104.894C112.364 101.711 111.727 98.4355 111.428 95.1198C110.63 87.8379 110.247 78.7112 109.912 70.4341C109.577 62.157 109.249 54.6566 108.42 50.9509C106.552 42.6495 99.067 41.8081 97.3592 41.7271H97.0161C90.9188 41.7251 84.897 43.0941 79.3843 45.7355C73.8716 48.377 69.0053 52.2252 65.136 57.003C69.0074 52.4338 73.807 48.7667 79.2062 46.2531C84.6053 43.7394 90.4765 42.4384 96.4176 42.4392H96.7607C98.4685 42.5201 105.962 43.3615 107.821 51.6629C108.619 55.3686 108.986 62.8043 109.313 71.1461C109.64 79.488 109.992 88.5661 110.829 95.8318C111.133 99.1441 111.77 102.416 112.729 105.598C116.487 116.423 124.292 115.906 129.271 109.7L129.287 109.684ZM63.6437 58.9206C63.8033 58.7102 63.9629 58.4998 64.1305 58.2976C63.9629 58.516 63.8033 58.7102 63.6437 58.9206Z" fill="#2FD1C5"/>
</g>
<g style="mix-blend-mode:multiply">
<path d="M79.2526 79.0753C79.882 76.5528 81.0235 74.1911 82.6042 72.1413C82.3046 68.8469 81.6681 65.593 80.7049 62.4321C77.0341 51.9137 69.6047 52.1079 64.5933 57.7878C64.5933 57.7474 75.8371 48.467 79.2526 79.0753Z" fill="#2FD1C5"/>
</g>
</g>
<defs>
<filter id="filter0_d_15_84" x="0" y="0" width="194" height="194" filterUnits="userSpaceOnUse" color-interpolation-filters="sRGB">
<feFlood flood-opacity="0" result="BackgroundImageFix"/>
<feColorMatrix in="SourceAlpha" type="matrix" values="0 0 0 0 0 0 0 0 0 0 0 0 0 0 0 0 0 0 127 0" result="hardAlpha"/>
<feOffset dy="14"/>
<feGaussianBlur stdDeviation="11.5"/>
<feColorMatrix type="matrix" values="0 0 0 0 0.109804 0 0 0 0 0.145098 0 0 0 0 0.172549 0 0 0 0.08 0"/>
<feBlend mode="normal" in2="BackgroundImageFix" result="effect1_dropShadow_15_84"/>
<feBlend mode="normal" in="SourceGraphic" in2="effect1_dropShadow_15_84" result="shape"/>
</filter>
<linearGradient id="paint0_linear_15_84" x1="69.1733" y1="53.9031" x2="69.1733" y2="113.524" gradientUnits="userSpaceOnUse">
<stop stop-color="#2FD1C5"/>
<stop offset="1" stop-color="#80E3DC"/>
</linearGradient>
<linearGradient id="paint1_linear_15_84" x1="124.759" y1="53.7696" x2="124.759" y2="113.39" gradientUnits="userSpaceOnUse">
<stop stop-color="#2FD1C5"/>
<stop offset="1" stop-color="#80E3DC"/>
</linearGradient>
<linearGradient id="paint2_linear_15_84" x1="124.826" y1="53.7696" x2="124.826" y2="98.1216" gradientUnits="userSpaceOnUse">
<stop stop-color="#2FD1C5"/>
<stop offset="1" stop-color="#80E3DC"/>
</linearGradient>
<linearGradient id="paint3_linear_15_84" x1="74.8956" y1="51.048" x2="122.831" y2="115.955" gradientUnits="userSpaceOnUse">
<stop stop-color="#00698C"/>
<stop offset="1" stop-color="#0098CB"/>
</linearGradient>
<clipPath id="clip0_15_84">
<rect width="82.5133" height="83.823" fill="white" transform="translate(55.7434 41.7433)"/>
</clipPath>
</defs>
</svg>
